# xmcd CD database file
#
# Track frame offsets:
#	150
#	21507
#	37732
#
# Disc length: 761 seconds
#
# Revision: 0
# Processed by: cddbd v1.5.1PL0 Copyright (c) Steve Scherf et al.
# Submitted via: CDex 1.51
#
DISCID=1a02f703
DTITLE=小森まなみ - YELLを君に！
DYEAR=1996
DGENRE=Pop
TTITLE0=YELLを君に！
TTITLE1=オヤスミBaby(MILKY LA-LA-LA Version)
TTITLE2=Believe
EXTD=YEAR: 1996
EXTT0=
EXTT1=
EXTT2=
PLAYORDER=
